<?xml version="1.0" encoding="UTF-8" standalone="no"?>
<svg
   xmlns:dc="http://purl.org/dc/elements/1.1/"
   xmlns:cc="http://creativecommons.org/ns#"
   xmlns:rdf="http://www.w3.org/1999/02/22-rdf-syntax-ns#"
   xmlns:svg="http://www.w3.org/2000/svg"
   xmlns="http://www.w3.org/2000/svg"
   height="776.56042"
   width="2700.0298"
   xml:space="preserve"
   enable-background="new 0 0 3000 3000"
   viewBox="0 0 2700.0298 776.56042"
   y="0px"
   x="0px"
   id="Layer_1"
   version="1.1"><metadata
   id="metadata19"><rdf:RDF><cc:Work
       rdf:about=""><dc:format>image/svg+xml</dc:format><dc:type
         rdf:resource="http://purl.org/dc/dcmitype/StillImage" /><dc:title>TRANSFORMED LOGOS FOR SITE</dc:title></cc:Work></rdf:RDF></metadata><defs
   id="defs17" />
<title
   id="title2">TRANSFORMED LOGOS FOR SITE</title>
<g
   transform="translate(-149.984,-1111.7192)"
   id="g12">
	<path
   style="fill:#ffffff"
   id="path4"
   d="m 149.984,1119.142 c 8.053,-0.483 16.025,1.822 22.576,6.529 4.081,3.264 7.889,6.8 11.696,10.335 l 294.31,294.581 7.344,7.072 7.617,-7.072 295.396,-295.668 c 6.333,-7.291 14.65,-12.584 23.937,-15.233 h 8.705 v 748.011 c -16.864,1.632 -34.001,0 -51.136,0 H 666.521 v -357.141 c -3.264,2.991 -5.44,4.352 -7.072,6.255 l -99.554,99.282 -66.913,66.913 c -2.189,2.477 -4.189,5.113 -5.984,7.889 -60.657,-60.656 -119.954,-120.225 -179.523,-179.25 h -1.904 V 1867.97 H 149.984 Z" />
	<path
   style="fill:#ffffff"
   id="path6"
   d="m 2036.062,1867.426 c -3.264,-13.6 -6.8,-27.2 -10.064,-41.344 -10.383,-46.119 -23.646,-91.543 -39.712,-136.002 -5.891,-15.312 -12.797,-30.216 -20.672,-44.609 -16.704,-32.665 -50.352,-53.169 -87.041,-53.041 -20.945,0 -41.617,0 -62.561,0 h -5.985 c 0,18.498 0,36.721 0,54.402 v 220.867 h -176.804 v -741.757 h 6.801 c 83.777,0 167.283,0 251.061,0 37.652,-0.236 75.166,4.614 111.521,14.415 38.488,10.587 73.552,31.023 101.729,59.297 30.48,30.154 50.092,69.569 55.762,112.067 5.889,39.234 1.193,79.332 -13.6,116.145 -15.73,37.443 -42.363,69.289 -76.434,91.394 l -7.889,5.44 4.352,3.263 c 24.924,16.75 45.977,38.638 61.746,64.194 17.314,27.373 31.373,56.677 41.889,87.312 l 61.744,178.708 c 0,2.448 1.631,5.168 2.178,7.616 -7.347,2.992 -188.501,3.266 -198.021,1.633 z m -225.763,-410.999 h 36.72 c 21.345,0.728 42.702,-1.007 63.649,-5.168 34.477,-6.47 61.525,-33.304 68.273,-67.729 4.893,-19.002 4.893,-38.933 0,-57.936 -7.23,-28.221 -28.688,-50.607 -56.576,-59.025 -10.11,-3.438 -20.627,-5.542 -31.281,-6.256 -24.753,0 -49.777,-1.631 -74.801,-2.176 -1.533,-0.223 -3.091,-0.223 -4.624,0 z" />
	<path
   style="fill:#ffffff"
   id="path8"
   d="m 2273.793,1765.152 102.002,-106.898 6.527,7.072 c 28.367,34.406 66.191,59.749 108.803,72.897 34.641,11.099 71.738,12.043 106.898,2.719 13.949,-3.967 26.732,-11.245 37.264,-21.216 26.73,-25.083 28.066,-67.083 2.984,-93.813 -0.27,-0.282 -0.537,-0.565 -0.809,-0.844 -7.916,-8.434 -17.092,-15.591 -27.199,-21.216 -21.398,-10.952 -43.693,-20.052 -66.643,-27.201 -31.008,-10.88 -62.289,-21.216 -92.752,-33.185 -26.252,-10.189 -50.895,-24.115 -73.17,-41.345 -40.367,-29.049 -67.871,-72.645 -76.703,-121.586 -8.008,-43.756 -1.516,-88.929 18.496,-128.657 31.652,-66.019 91.779,-113.92 163.203,-130.018 36.492,-9.276 74.305,-12.219 111.793,-8.705 52.621,3.882 103.854,18.707 150.418,43.521 25.111,13.752 48.029,31.169 68.002,51.681 l 5.984,6.256 -100.098,104.995 c -5.117,-4.193 -10.02,-8.641 -14.689,-13.329 -39.359,-39.338 -93.471,-60.272 -149.059,-57.664 -14.264,-0.289 -28.406,2.688 -41.344,8.704 -25.213,11.288 -40.266,37.549 -37.266,65.009 1.646,15.415 9.262,29.572 21.217,39.441 9.328,8.076 19.771,14.765 31.01,19.856 26.619,11.727 53.859,21.987 81.6,30.737 29.65,10.608 59.299,21.216 88.402,33.185 32.408,13.034 61.973,32.252 87.041,56.576 33.201,30.932 55.043,72.124 62.018,116.961 5.521,37.945 1.021,76.672 -13.057,112.339 -21.436,57.692 -65.865,103.893 -122.674,127.569 -33.676,14.968 -69.629,24.161 -106.354,27.2 -52.51,4.982 -105.486,1.027 -156.674,-11.696 -56.477,-13.413 -108.383,-41.571 -150.418,-81.601 -9.521,-10.879 -16.864,-18.768 -24.753,-27.744 z" />
	<path
   style="fill:#ffffff"
   id="path10"
   d="m 1567.126,1868.515 h -186.322 c -8.161,0 -8.161,0 -11.152,-7.617 l -27.199,-69.089 c 0,-2.992 -2.45,-5.712 -3.538,-8.432 h -250.244 c 0,2.991 -2.449,5.439 -3.536,8.432 l -27.2,69.905 c -1.058,4.308 -5.102,7.197 -9.521,6.801 h -153.682 -6.8 c 0,-3.265 1.904,-5.984 2.991,-8.704 30.464,-69.634 60.929,-138.994 91.122,-208.628 73.623,-169.73 147.155,-339.461 220.595,-509.191 1.887,-4.541 4.162,-8.909 6.801,-13.056 6.244,-9.915 19.345,-12.89 29.259,-6.646 2.684,1.69 4.955,3.961 6.646,6.646 2.606,4.216 4.794,8.681 6.527,13.327 62.562,144.164 125.031,288.506 187.412,433.031 l 124.849,286.148 c 1.164,2.284 2.163,4.647 2.992,7.073 z m -426.774,-215.428 c 18.224,1.632 137.362,0 143.346,0 -2.719,-11.151 -68.002,-169.73 -72.081,-174.082 z" />
</g>
</svg>